# xmcd CD database file
# Copyright (C) 1993-1998 Ti Kan
#
# Track frame offsets:
#  150
#  20960
#  35870
#  49875
#  66595
#  80280
#  106270
#  117627
#  128697
#  161092
#  175730
#  191480
#
# Disc length: 2780 seconds
#
# Revision: 1
# Processed by: cddbd v1.4b41PL1 Copyright (c) Steve Scherf et al.
# Submitted via: CDWizzard Release:4.35
#
DISCID=ae0ada0c
DTITLE=Harmonie Municipale Esch-Alzette - 12 Marches Europeennes
DYEAR=1900
DGENRE=
TTITLE0=Alte Kameraden
TTITLE1=Marche des Parachutistes
TTITLE2=Kong Frederik den IX
TTITLE3=El Relicario
TTITLE4=Marche Lorraine
TTITLE5=Pomp and Circumstance
TTITLE6=Toute la Gloire et tout le  Charme
TTITLE7=March Of The Irish Guard
TTITLE8=Marche Triomphale
TTITLE9=Patriae Fideles
TTITLE10=Gammatique
TTITLE11=Pela Lei E Pela Grei
EXTD=
EXTT0=
EXTT1=
EXTT2=
EXTT3=
EXTT4=
EXTT5=
EXTT6=
EXTT7=
EXTT8=
EXTT9=
EXTT10=
EXTT11=
PLAYORDER=
